# xmcd
#
# Track frame offsets: 
#        182
#        10687
#        25140
#        37092
#        47795
#        58180
#        69567
#        80592
#        89970
#        100100
#        110452
#        120832
#        132930
#        144940
#        154662
#        165312
#        176137
#        187162
#        198437
#        209335
#        220272
#        231720
#        243677
#        256825
#        268792
#        280880
#        292407
#        302747
#        312130
#        323190
#
# Disc length: 4433 seconds
#
# Revision: 1
# Processed by: cddbd v1.5.2PL0 Copyright (c) Steve Scherf et al.
# Submitted via: ExactAudioCopy v0.95b4
#
DISCID=ca114f1e
DTITLE=Various Artist - Jukebox Top 100 Deel 1 CD1
DYEAR=2005
DGENRE=Oldies
TTITLE0=Ricky Nelson/Hello Mary Lou
TTITLE1=Cliff Richard/ The young ones
TTITLE2=Neil Sedaka/ Calender girl
TTITLE3=Eddie Cochran/ Three steps to heaven
TTITLE4=Marcels/ Blue moon
TTITLE5=Danny and the Juniors/ At the hop
TTITLE6=Paul Anka/ Diana
TTITLE7=Frank Ifield/ I remember you
TTITLE8=Buddy Knox/ Party doll
TTITLE9=Frankie Lymon and the Teenagers/ Why do fools fall in love
TTITLE10=Little Anthony and the Imperials/ Tears on my pillow
TTITLE11=Buddy Holly/ Because I love you
TTITLE12=Tokens/ The lion sleeps tonight
TTITLE13=Helen Shapiro/ Queen for tonight
TTITLE14=James Darren/ Goodbye cruel world
TTITLE15=Nat King Cole/ Those lazy-hazy-crazy days of summer
TTITLE16=Beach Boys/ Surfin' USA
TTITLE17=Russ Conway/ Lesson one
TTITLE18=Perry Como/ Hot diggity
TTITLE19=Brenda Lee/ Sweet nothing's
TTITLE20=Elvis Presley/ One night
TTITLE21=Fats Domino/ Red sails in the sunset
TTITLE22=Shadows/ Apache
TTITLE23=John Leyton/ Johnny remember me
TTITLE24=Ricky Valance/ Tell Laura I love her
TTITLE25=Pat Boone/ Speedy Gonzalez
TTITLE26=Les Paul&Mary Ford/ Mockin' bird hill
TTITLE27=Four Knights/ Oh baby mine
TTITLE28=Kalin Twins/ When
TTITLE29=Ventures/ Walk don't run
EXTD=
EXTT0=
EXTT1=
EXTT2=
EXTT3=
EXTT4=
EXTT5=
EXTT6=
EXTT7=
EXTT8=
EXTT9=
EXTT10=
EXTT11=
EXTT12=
EXTT13=
EXTT14=
EXTT15=
EXTT16=
EXTT17=
EXTT18=
EXTT19=
EXTT20=
EXTT21=
EXTT22=
EXTT23=
EXTT24=
EXTT25=
EXTT26=
EXTT27=
EXTT28=
EXTT29=
PLAYORDER=
